<svg xmlns="http://www.w3.org/2000/svg" viewBox="0 0 247.00002 49.97703"><defs><style>.a{fill:#99caff;}</style></defs><polygon class="a" points="3.752 1.97 0 1.97 0 34.796 18.148 34.796 18.148 31.326 3.752 31.326 3.752 1.97"/><rect class="a" x="20.81689" y="10.12933" width="3.61078" height="24.66681"/><path class="a" d="M22.59857.56274a2.367,2.367,0,0,0-2.3943,2.33938q-.00086.07313.00282.14618a2.39343,2.39343,0,0,0,4.78333.18378q.00352-.09186,0-.18378A2.36706,2.36706,0,0,0,22.745.56555Q22.67184.56189,22.59857.56274Z"/><path class="a" d="M47.33582,15.14691a9.7972,9.7972,0,0,0-9.19141-5.15808c-6.61243.04669-11.16107,4.87707-11.16107,11.81756,0,6.98718,4.5957,11.911,11.25482,11.911a9.73545,9.73545,0,0,0,9.09766-5.15809V32.311c0,5.20514-3.517,8.53454-8.91,8.53454a12.66471,12.66471,0,0,1-8.30029-3.14178L28.4373,40.37687a16.38479,16.38479,0,0,0,10.12933,3.61078c7.50323,0,12.42706-4.54865,12.42706-11.77088V10.1293H47.33582ZM38.89471,30.71612c-4.97088,0-8.4411-3.70453-8.48822-8.81628.04712-5.15815,3.51734-8.863,8.48822-8.863,4.92414,0,8.44111,3.70489,8.44111,8.863C47.33582,27.01159,43.81885,30.71612,38.89471,30.71612Z"/><path class="a" d="M67.58441,9.98883c-4.54864.04669-7.92511,1.82873-9.61334,5.67413V0H54.31329V34.79614h3.65778V22.6972c0-5.39276,3.09509-9.14435,8.34735-9.19141,4.36139,0,6.98755,2.6261,6.98755,7.03424V34.79614h3.65747v-15.194C76.96344,13.59954,73.49353,9.98883,67.58441,9.98883Z"/><path class="a" d="M88.5509,31.56054c-2.11047,0-3.283-1.2196-3.283-4.22088V13.74041h7.83167V10.87963h-7.8317V4.40814H81.6571v6.47149h-3.564v2.86078h3.564v14.209c0,4.87707,2.67286,7.0343,6.284,6.98755a9.90375,9.90375,0,0,0,5.58033-1.8291L92.49005,30.2943A8.43081,8.43081,0,0,1,88.5509,31.56054Z"/><polygon class="a" points="96.113 34.796 106.992 34.796 106.992 24.104 121.576 24.104 121.576 15.851 106.992 15.851 106.992 10.176 122.561 10.176 122.561 1.923 96.113 1.923 96.113 34.796"/><rect class="a" x="124.16492" width="10.55127" height="34.79614"/><path class="a" d="M150.74,8.67578A38.29323,38.29323,0,0,0,138.078,11.161l2.34516,7.0343a24.61117,24.61117,0,0,1,7.78424-1.64118c2.57934,0,3.93913,1.03131,3.9862,2.81372h-5.86206c-6.51825.09345-9.94177,2.76661-9.94177,7.8313,0,4.87708,3.14215,8.066,8.582,8.066,3.28266,0,5.72119-1.17261,7.2218-3.236v2.767h10.364V18.1953C162.55756,12.14563,158.14905,8.67578,150.74,8.67578Zm1.45355,17.91357a4.3221,4.3221,0,0,1-3.564,1.96991,2.099,2.099,0,0,1-2.34472-2.251c0-1.3601.797-2.06335,2.251-2.06335h3.65778Z"/><path class="a" d="M191.13013,9.1443H180.57855L176.405,25.22955,172.325,9.1443H161.49237l9.379,25.6518h10.78589l4.16607-11.28137a12.94216,12.94216,0,0,0,1.12952,2.9273c1.17157,2.79773,6.01209,6.58405,7.62439,8.15393-4.10284-4.09814-7.013-9.38763-7.48621-14.5141Z"/><path class="a" d="M229.78076,12.89593V9.1443H219.22919V21.0097c-.714,4.8316-3.50763,9.73474-7.36371,13.5863,1.51166-1.47186,5.8609-4.8919,7.36371-7.619v7.81915h10.55157V22.5567c0-3.37647,3.09509-5.06464,7.8313-4.36139V8.67578A9.12388,9.12388,0,0,0,229.78076,12.89593Z"/><path class="a" d="M244.47656,4.47418c0-.91815-.62036-1.44843-1.73315-1.44843H240.958V7.23h.93122V6.014h.95739l.67261,1.216h1.07359L243.67465,5.834A1.37566,1.37566,0,0,0,244.47656,4.47418Zm-1.73315.79028h-.85425V3.77685h.85425c.53027,0,.84112.25861.84112.73657C243.58453,4.99279,243.27368,5.26446,242.74341,5.26446Z"/><path class="a" d="M242.6272.86553a4.399,4.399,0,1,0,4.37274,4.4251Q247.00006,5.271,247,5.2514A4.396,4.396,0,0,0,242.6272.86553ZM242.601,8.693a3.39877,3.39877,0,0,1-3.42838-3.3689q-.00019-.02328-.00009-.04657a3.4482,3.4482,0,1,1,3.48071,3.41537Q242.62712,8.69314,242.601,8.693Z"/><path class="a" d="M214.40668,11.34454c-1.73432-2.64526-1.18878-2.3866-6.10321-3.4596,6.26666,7.81006,2.56872,20.77356-1.5044,29.55994,0,0-.8023,1.84406-.838,1.93976a13.97891,13.97891,0,0,1-1.84448.19586l.29987-1.91278c1.20392-9.16559,4.29-21.37537.77551-30.13965l-3.4826.01c-1.00043,1.45563-1.30329,3.65918-1.50519,5.37665-.79877,8.18841.75714,16.46509,2.092,24.51752l.33789,2.11084.04163.03357a18.26,18.26,0,0,1-2.20093-.23426c-.10821-.25934-.825-1.91015-.825-1.91015-4.07374-8.77411-7.77161-21.763-1.505-29.56067-4.91553,1.07519-4.36963.811-6.10431,3.45959-2.12231,3.74085-2.05536,8.35913-1.049,12.433a29.14262,29.14262,0,0,0,5.43945,11.20489c1.02954,1.302,1.86157,3.18335,3.15674,4.24475l1.53106,3.14728.00092.0003.58191,2.14435v.02442l-.58576,2.3266.0423.30981v2.2395a.37024.37024,0,0,0-.02051.11414.51957.51957,0,0,0,.56555.4544H205.023a.51955.51955,0,0,0,.5655-.4544.34661.34661,0,0,0-.02045-.11414v-2.2395l.08465-.30981-.57641-2.29175.53351-2.20258L205.607,42.362l1.33-3.19171c1.443-1.3504,2.55737-3.62684,3.80908-5.25647a27.239,27.239,0,0,0,4.961-11.25622C216.45642,18.9083,216.33716,14.73455,214.40668,11.34454ZM202.49683,42.69213a6.93589,6.93589,0,0,0,1.75811-.00122l.5398,1.80158h-2.79749Zm2.83148,4.16462h-3.8866l.52533-2.089h2.83447Z"/></svg>